<svg width="121" height="31" viewBox="0 0 121 31" fill="none" xmlns="http://www.w3.org/2000/svg">
<path d="M95.968 4.76801H120.032V28.896H117.696V26.88H98.272V28.896H95.968V4.76801ZM117.696 24.576V7.104H98.272V24.576H117.696Z" fill="#EAB308"/>
<path d="M63.008 26.528H68.928V24.576H72.896V22.592H76.832V20.608H78.816V16.64H80.8V12.704H82.752V7.104H60.992V4.768H82.752V2.816H84.736V0.832001H89.024V2.816H91.008V7.104H89.024V9.088H85.088V13.024H83.104V16.992H81.12V20.96H79.168V22.912H77.184V24.896H73.216V26.88H69.28V28.896H63.008V26.528ZM88.672 6.752V3.136H85.088V6.752H88.672Z" fill="#EAB308"/>
<path d="M32.96 20.608H34.944V18.624H36.896V16.64H50.752V15.008H48.768V13.024H46.784V11.072H30.944V8.736H44.8V7.104H42.848V5.12H40.864V0.832001H43.168V4.768H45.152V6.752H47.136V8.736H50.752V6.752H57.024V9.088H51.072V11.072H49.12V12.704H51.072V14.656H53.056V16.64H55.04V18.624H57.024V20.96H50.752V18.976H37.248V20.96H35.264V24.576H37.248V26.528H52.704V24.576H55.04V26.88H53.056V28.896H36.896V26.88H34.944V24.896H32.96V20.608ZM52.704 18.624V16.992H51.072V18.624H52.704Z" fill="#0891B2"/>
<path d="M10.816 28.512V26.528H16.768V24.576H18.72V20.608H20.704V9.088H18.72V5.12H11.168V7.10399H9.18401V9.088H7.23201V13.024H5.24801V16.992H3.26401V20.96H0.960007V6.752H2.91201V2.81599H5.24801V7.10399H3.26401V12.704H4.89601V8.73599H6.88001V6.752H8.86401V4.768H10.816V2.81599H19.072V4.768H21.056V8.73599H23.04V20.96H21.056V24.896H19.072V26.88H17.088V28.896H11.168V30.88H2.91201V28.512H10.816Z" fill="#0891B2"/>
</svg>
